0
SECTION
2
HEADER
9
$INSUNITS
70
4
9
$ACADVER
1
AC1014
9
$HANDSEED
5
FFFF
0
ENDSEC
0
SECTION
2
TABLES
0
TABLE
2
VPORT
5
8
100
AcDbSymbolTable
0
ENDTAB
0
TABLE
2
LTYPE
5
5
100
AcDbSymbolTable
0
LTYPE
5
14
100
AcDbSymbolTableRecord
100
AcDbLinetypeTableRecord
2
BYBLOCK
70
0
0
LTYPE
5
15
100
AcDbSymbolTableRecord
100
AcDbLinetypeTableRecord
2
BYLAYER
70
0
0
ENDTAB
0
TABLE
2
LAYER
5
2
100
AcDbSymbolTable
70
2
0
LAYER
5
50
100
AcDbSymbolTableRecord
100
AcDbLayerTableRecord
2
0
70
0
6
CONTINUOUS
0
ENDTAB
0
TABLE
2
STYLE
5
3
100
AcDbSymbolTable
70
1
0
STYLE
5
11
100
AcDbSymbolTableRecord
100
AcDbTextStyleTableRecord
2
STANDARD
70
0
0
ENDTAB
0
TABLE
2
VIEW
5
6
100
AcDbSymbolTable
70
0
0
ENDTAB
0
TABLE
2
UCS
5
7
100
AcDbSymbolTable
70
0
0
ENDTAB
0
TABLE
2
APPID
5
9
100
AcDbSymbolTable
70
2
0
APPID
5
12
100
AcDbSymbolTableRecord
100
AcDbRegAppTableRecord
2
ACAD
70
0
0
ENDTAB
0
TABLE
2
DIMSTYLE
5
A
100
AcDbSymbolTable
70
1
0
ENDTAB
0
TABLE
2
BLOCK_RECORD
5
1
100
AcDbSymbolTable
70
1
0
BLOCK_RECORD
5
1F
100
AcDbSymbolTableRecord
100
AcDbBlockTableRecord
2
*MODEL_SPACE
0
BLOCK_RECORD
5
1B
100
AcDbSymbolTableRecord
100
AcDbBlockTableRecord
2
*PAPER_SPACE
0
ENDTAB
0
ENDSEC
0
SECTION
2
BLOCKS
0
BLOCK
5
20
100
AcDbEntity
100
AcDbBlockBegin
2
*MODEL_SPACE
0
ENDBLK
5
21
100
AcDbEntity
100
AcDbBlockEnd
0
BLOCK
5
1C
100
AcDbEntity
100
AcDbBlockBegin
2
*PAPER_SPACE
0
ENDBLK
5
1D
100
AcDbEntity
100
AcDbBlockEnd
0
ENDSEC
0
SECTION
2
ENTITIES
0
LINE
5
100
100
AcDbEntity
8
0
100
AcDbLine
10
-2.8702921748225658
20
-16.580587257080069
30
0
11
-2.8702921825507111
21
-18.784906538185716
31
0
0
ARC
5
101
100
AcDbEntity
8
0
100
AcDbCircle
10
-2.2202921825507103
20
-18.784906540464558
30
0
40
0.65000000000000058
210
0
220
0
230
1
100
AcDbArc
50
180
51
269.45350690297005
0
SPLINE
5
102
100
AcDbEntity
8
0
100
AcDbSpline
70
4
71
3
72
8
73
4
74
0
42
0.000000001
43
0.0000000001
44
0.0000000001
40
0.040613991159666456
40
0.040613991159666456
40
0.040613991159666456
40
0.040613991159666456
40
1
40
1
40
1
40
1
41
1
41
1
41
1
41
1
10
-2.2264918560546865
20
-19.434876973675518
30
0
10
2.8010020212984998
20
-19.482831186770685
30
0
10
6.8410439909382532
20
-17.959292303649033
30
0
10
9.8936362774407716
20
-14.864260180929678
30
0
0
SPLINE
5
103
100
AcDbEntity
8
0
100
AcDbSpline
70
4
71
3
72
8
73
4
74
0
42
0.000000001
43
0.0000000001
44
0.0000000001
40
0
40
0
40
0
40
0
40
1
40
1
40
1
40
1
41
1
41
1
41
1
41
1
10
9.8936362774407716
20
-14.864260180929678
30
0
10
14.666364658279798
20
-10.025178324392813
30
0
10
12.875186941961035
20
-1.8827323069367552
30
0
10
14.135567923152035
20
2.0440844645069309
30
0
0
SPLINE
5
104
100
AcDbEntity
8
0
100
AcDbSpline
70
4
71
3
72
8
73
4
74
0
42
0.000000001
43
0.0000000001
44
0.0000000001
40
0
40
0
40
0
40
0
40
1
40
1
40
1
40
1
41
1
41
1
41
1
41
1
10
14.135567923152035
20
2.0440844645069309
30
0
10
15.395948694407529
20
5.9708995564665717
30
0
10
17.491568636214321
20
7.722179869576915
30
0
10
16.750739116036481
20
9.4269989359424731
30
0
0
SPLINE
5
105
100
AcDbEntity
8
0
100
AcDbSpline
70
4
71
3
72
8
73
4
74
0
42
0.000000001
43
0.0000000001
44
0.0000000001
40
0
40
0
40
0
40
0
40
1
40
1
40
1
40
1
41
1
41
1
41
1
41
1
10
16.750739116036481
20
9.4269989359424731
30
0
10
16.009909595858641
20
11.131816322823994
30
0
10
13.957424000346251
20
11.059984790027766
30
0
10
13.116029573237482
20
12.455921547433366
30
0
0
SPLINE
5
106
100
AcDbEntity
8
0
100
AcDbSpline
70
4
71
3
72
8
73
4
74
0
42
0.000000001
43
0.0000000001
44
0.0000000001
40
0
40
0
40
0
40
0
40
1
40
1
40
1
40
1
41
1
41
1
41
1
41
1
10
13.116029573237482
20
12.455921547433366
30
0
10
12.274634936193214
20
13.851861663807071
30
0
10
13.131353605575942
20
18.309289587391053
30
0
10
9.8936362774407716
20
20.736261602771904
30
0
0
SPLINE
5
107
100
AcDbEntity
8
0
100
AcDbSpline
70
0
71
2
72
6
73
3
74
0
42
0.000000001
43
0.0000000001
44
0.0000000001
40
0
40
0
40
0
40
0.89580802815473248
40
0.89580802815473248
40
0.89580802815473248
10
9.8936362774407716
20
20.736261602771904
30
0
10
6.9932634781254137
20
22.910359609266358
30
0
10
1.2514586873174049
20
23.134963987264157
30
0
0
ARC
5
108
100
AcDbEntity
8
0
100
AcDbCircle
10
1.3073537970737465
20
24.563871169940942
30
0
40
1.4300000000000004
210
0
220
0
230
1
100
AcDbArc
50
180
51
267.75988116112046
0
LINE
5
109
100
AcDbEntity
8
0
100
AcDbLine
10
-0.122646202926254
20
24.563871169940946
30
0
11
-0.12264620292625483
21
29.939945779992883
31
0
0
ARC
5
110
100
AcDbEntity
8
0
100
AcDbCircle
10
-0.7726462029262513
20
29.939945779992886
30
0
40
0.64999999999999636
210
-0
220
0
230
1
100
AcDbArc
50
0
51
90.000000000000583
0
LINE
5
111
100
AcDbEntity
8
0
100
AcDbLine
10
-0.77264620292625774
20
30.589945779992881
30
0
11
-20.948161433606106
21
30.589945779992878
31
0
0
ARC
5
112
100
AcDbEntity
8
0
100
AcDbCircle
10
-20.948161433606103
20
29.939945779992883
30
0
40
0.64999999999999503
210
0
220
0
230
1
100
AcDbArc
50
90.000000000000313
51
180
0
LINE
5
113
100
AcDbEntity
8
0
100
AcDbLine
10
-21.598161433606101
20
29.939945779992883
30
0
11
-21.598161433606098
21
4.9522297047820052
31
0
0
ARC
5
114
100
AcDbEntity
8
0
100
AcDbCircle
10
-20.948161433606099
20
4.9522297047820079
30
0
40
0.64999999999999947
210
0
220
0
230
1
100
AcDbArc
50
180
51
270.00000000000091
0
LINE
5
115
100
AcDbEntity
8
0
100
AcDbLine
10
-20.948161433606089
20
4.3022297047820039
30
0
11
-20.766037840667977
21
4.3022297047820039
31
0
0
ARC
5
116
100
AcDbEntity
8
0
100
AcDbCircle
10
-20.766037840667977
20
2.8722297047820042
30
0
40
1.4300000000000019
210
0
220
0
230
1
100
AcDbArc
50
-3.8706142576030969
51
90
0
SPLINE
5
117
100
AcDbEntity
8
0
100
AcDbSpline
70
4
71
3
72
8
73
4
74
0
42
0.000000001
43
0.0000000001
44
0.0000000001
40
0.5762782005092667
40
0.5762782005092667
40
0.5762782005092667
40
0.5762782005092667
40
1
40
1
40
1
40
1
41
1
41
1
41
1
41
1
10
-19.339299626109174
20
2.7756995689821045
30
0
10
-19.365369977768786
20
2.3903736117286156
30
0
10
-19.378619418665199
20
2.0014829576474309
30
0
10
-19.378619418665199
20
1.6094608642465114
30
0
0
SPLINE
5
118
100
AcDbEntity
8
0
100
AcDbSpline
70
4
71
3
72
8
73
4
74
0
42
0.000000001
43
0.0000000001
44
0.0000000001
40
0
40
0
40
0
40
0
40
0.95645007349698652
40
0.95645007349698652
40
0.95645007349698652
40
0.95645007349698652
41
1
41
1
41
1
41
1
10
-19.378619418665199
20
1.6094608642465114
30
0
10
-19.378619418665199
20
1.5975723223489147
30
0
10
-18.63431081452374
20
1.3015751817446581
30
0
10
-17.145690667286811
20
0.72146944243373645
30
0
0
ARC
5
119
100
AcDbEntity
8
0
100
AcDbCircle
10
-17.664920038748285
20
-0.61093472290489148
30
0
40
1.430000000000001
210
-0
220
0
230
1
100
AcDbArc
50
-53.022814173963667
51
68.70945588919561
0
LINE
5
120
100
AcDbEntity
8
0
100
AcDbLine
10
-16.804779367635259
20
-1.753326085747432
30
0
11
-18.69606366508447
21
-3.1773306762808353
31
0
0
SPLINE
5
121
100
AcDbEntity
8
0
100
AcDbSpline
70
4
71
3
72
8
73
4
74
0
42
0.000000001
43
0.0000000001
44
0.0000000001
40
0
40
0
40
0
40
0
40
1
40
1
40
1
40
1
41
1
41
1
41
1
41
1
10
-18.69606366508447
20
-3.1773306762808353
30
0
10
-18.236768444137205
20
-4.7463097137564176
30
0
10
-17.55747088961246
20
-6.2196471730663188
30
0
10
-16.694333652063637
20
-7.5607538147085718
30
0
0
LINE
5
122
100
AcDbEntity
8
0
100
AcDbLine
10
-16.694333652063637
20
-7.5607538147085718
30
0
11
-14.4509918828244
21
-7.060143204504965
31
0
0
ARC
5
123
100
AcDbEntity
8
0
100
AcDbCircle
10
-14.139542239359495
20
-8.4558147703060254
30
0
40
1.4299999999999999
210
0
220
0
230
1
100
AcDbArc
50
-20.397742912907162
51
102.57967034588145
0
LINE
5
124
100
AcDbEntity
8
0
100
AcDbLine
10
-12.799209359369287
20
-8.9542199978239125
30
0
11
-13.609534606246577
21
-11.133381675731517
31
0
0
SPLINE
5
125
100
AcDbEntity
8
0
100
AcDbSpline
70
4
71
3
72
8
73
4
74
0
42
0.000000001
43
0.0000000001
44
0.0000000001
40
0
40
0
40
0
40
0
40
1
40
1
40
1
40
1
41
1
41
1
41
1
41
1
10
-13.609534606246577
20
-11.133381675731517
30
0
10
-12.402613701705558
20
-12.187472050996004
30
0
10
-11.044342733077631
20
-13.068984523530187
30
0
10
-9.5721691562140236
20
-13.74003203253287
30
0
0
LINE
5
126
100
AcDbEntity
8
0
100
AcDbLine
10
-9.5721691562140254
20
-13.740032032532866
30
0
11
-7.9904379198256068
21
-12.130369382543121
31
0
0
ARC
5
127
100
AcDbEntity
8
0
100
AcDbCircle
10
-6.9704644847783301
20
-13.132643891745992
30
0
40
1.4299999999999988
210
0
220
-0
230
1
100
AcDbArc
50
11.97082895334699
51
135.50144586098526
0
LINE
5
128
100
AcDbEntity
8
0
100
AcDbLine
10
-5.5715622254494761
20
-12.836042359645056
30
0
11
-5.1021669355515895
21
-15.049915386211257
31
0
0
SPLINE
5
129
100
AcDbEntity
8
0
100
AcDbSpline
70
4
71
3
72
8
73
4
74
0
42
0.000000001
43
0.0000000001
44
0.0000000001
40
0
40
0
40
0
40
0
40
0.4184249910832144
40
0.4184249910832144
40
0.4184249910832144
40
0.4184249910832144
41
1
41
1
41
1
41
1
10
-5.1021669355515895
20
-15.049915386211257
30
0
10
-4.7965798679740974
20
-15.09371406524934
30
0
10
-4.4883208299966055
20
-15.129107887467681
30
0
10
-4.177625556709855
20
-15.155858195693909
30
0
0
ARC
5
130
100
AcDbEntity
8
0
100
AcDbCircle
10
-4.3002921847784705
20
-16.580587257080065
30
0
40
1.4299999999999997
210
0
220
0
230
1
100
AcDbArc
50
0
51
85.079071207635053
0
ENDSEC
0
SECTION
2
OBJECTS
0
DICTIONARY
5
C
100
AcDbDictionary
3
ACAD_GROUP
350
D
3
ACAD_MLINESTYLE
350
17
0
DICTIONARY
5
D
100
AcDbDictionary
0
DICTIONARY
5
1A
330
C
100
AcDbDictionary
0
DICTIONARY
5
17
100
AcDbDictionary
0
ENDSEC
0
EOF
